<?xml version="1.0" encoding="UTF-8"?>
<!DOCTYPE svg PUBLIC "-//W3C//DTD SVG 1.0//EN" "http://www.w3.org/TR/2001/REC-SVG-20010904/DTD/svg10.dtd">
<!-- Creator: CorelDRAW X7 -->
<svg xmlns="http://www.w3.org/2000/svg" xml:space="preserve" width="554px" height="508px" version="1.0" style="shape-rendering:geometricPrecision; text-rendering:geometricPrecision; image-rendering:optimizeQuality; fill-rule:evenodd; clip-rule:evenodd"
viewBox="0 0 230 211"
 xmlns:xlink="http://www.w3.org/1999/xlink">
 <defs>
  <style type="text/css">
   <![CDATA[
    .fil0 {fill:#663300}
   ]]>
  </style>
 </defs>
 <g id="Layer_x0020_1">
  <metadata id="CorelCorpID_0Corel-Layer"/>
  <path class="fil0" d="M11 173c0,-2 3,-6 4,-8 5,-7 4,-5 21,7 4,2 29,18 29,20 1,2 -3,6 -4,8 -5,7 -4,6 -21,-6 -5,-4 -10,-7 -15,-10 -2,-2 -4,-3 -7,-5 -2,-1 -7,-4 -7,-6zm173 -128c0,0 2,2 5,5 1,2 3,4 4,6 8,10 14,23 17,35l0 0 0 0c1,6 2,12 2,17 4,0 9,-1 12,1 8,3 8,17 1,21 -4,3 -26,2 -32,2 1,8 1,8 -7,15 -2,1 -4,3 -6,5 -12,10 -19,17 -36,22 -14,4 -23,6 -39,4 -7,-1 -14,-2 -21,-1 -9,1 -12,3 -16,7 0,1 0,1 0,1l1 1c6,7 2,11 -5,21 -6,9 -15,1 -21,-3l-27 -18c-7,-5 -16,-9 -10,-19 2,-2 3,-4 5,-7 6,-9 10,-5 14,-5l10 -12c1,-1 2,-2 3,-3 5,-6 2,-3 8,-8 -9,-1 -36,0 -40,-1 -8,-3 -8,-19 0,-22 4,-2 8,-1 12,-1 1,-12 4,-26 9,-35 2,-5 5,-9 7,-14 2,-2 3,-4 5,-6 14,-17 31,-27 53,-33 3,-1 6,-2 9,-2 -1,-5 -5,-10 0,-14 6,-5 32,-7 30,7 0,3 -1,4 -2,7 1,0 8,1 10,2 10,2 19,6 27,11 7,4 13,9 18,14l0 0zm3 15c-2,-3 -4,-7 -7,-10 -11,-10 -24,-18 -38,-23 -60,-18 -114,27 -117,81l101 0c27,0 53,-1 79,0 -1,-20 -7,-33 -18,-48zm-135 55l-17 0c-1,0 -2,0 -4,0l-1 0 -5 0 0 0 -14 0c-4,0 -4,1 -4,5 0,4 0,5 5,5l167 0c13,0 26,0 39,0 5,0 5,-1 5,-5 0,-4 0,-5 -4,-5 -7,-1 -13,0 -20,0l-107 0 -30 0c-3,0 -7,0 -10,0zm10 66c-2,-1 -6,-4 -8,-5l-23 -17c0,-2 4,-6 6,-8 7,-8 11,-15 23,-18 8,-3 23,2 33,5 6,2 7,1 13,0 4,-1 20,-5 23,-5 4,1 6,5 3,8 -3,3 -12,5 -13,8 -2,7 10,5 17,4 4,0 17,-4 22,-6 3,0 6,-3 9,-5 3,-2 5,-3 8,-5 2,-2 7,-5 9,-5 2,0 6,2 0,7 -2,3 -5,5 -7,7 -3,2 -6,4 -8,6 -4,5 -10,9 -17,12 -5,3 -14,5 -21,6 -22,6 -31,-2 -51,1 -12,2 -15,8 -18,10zm74 -35c2,-2 3,-2 4,-7 1,-3 -1,-5 -2,-7l32 0c-3,2 -11,8 -14,9l-20 5zm-30 -137c3,-3 15,-3 19,0 0,3 -1,5 -3,6 -2,2 -4,2 -7,2 -2,0 -9,1 -9,-8z"/>
 </g>
</svg>
