<?xml version="1.0" encoding="UTF-8"?>
<!DOCTYPE svg PUBLIC "-//W3C//DTD SVG 1.0//EN" "http://www.w3.org/TR/2001/REC-SVG-20010904/DTD/svg10.dtd">
<!-- Creator: CorelDRAW X7 -->
<svg xmlns="http://www.w3.org/2000/svg" xml:space="preserve" width="449px" height="584px" version="1.0" style="shape-rendering:geometricPrecision; text-rendering:geometricPrecision; image-rendering:optimizeQuality; fill-rule:evenodd; clip-rule:evenodd"
viewBox="0 0 151 197"
 xmlns:xlink="http://www.w3.org/1999/xlink">
 <defs>
  <style type="text/css">
   <![CDATA[
    .fil0 {fill:#663300}
   ]]>
  </style>
 </defs>
 <g id="Layer_x0020_1">
  <metadata id="CorelCorpID_0Corel-Layer"/>
  <g id="_1498760158768">
   <path class="fil0" d="M81 150c4,-1 7,-4 10,-4 6,0 10,2 16,-2 6,-4 6,-8 10,-9 1,5 17,37 17,41 0,5 -13,1 -20,3 -6,2 -12,18 -17,7 -1,-1 -1,-1 -1,-2l-6 -13c-1,-2 -2,-3 -2,-5 -1,-1 -1,-2 -2,-3l-5 -13zm-7 -150l3 0c2,0 4,1 7,2 2,0 3,2 5,2 5,1 9,-1 15,1 7,3 8,7 11,9 4,4 8,3 13,7 1,1 3,3 4,4 4,7 0,7 7,13 2,2 3,3 5,7 1,1 2,3 3,5 0,5 0,5 0,10 0,4 4,9 4,16 0,7 -3,9 -4,11 -2,6 2,12 -3,20 -3,5 -5,5 -7,8 -3,3 -2,6 -5,10l-3 3c-2,2 -3,3 -5,4 0,2 1,4 2,6l14 32c3,6 1,12 -5,15 -4,1 -9,0 -14,0 -4,0 -4,0 -6,2 -4,4 -9,10 -13,10 -4,0 -5,-1 -8,-3 -1,-1 -2,-2 -3,-4 -2,-5 -15,-32 -15,-34l-1 0c0,1 0,2 -1,3l-10 22c-1,1 -1,2 -1,3 -2,3 -3,8 -6,10 -3,3 -4,3 -8,3 -7,0 -12,-11 -15,-12 -4,0 -14,2 -18,-1 -3,-1 -6,-5 -6,-9 0,-3 7,-17 9,-22 0,-2 1,-3 2,-5l4 -10c1,-2 2,-4 3,-6 -2,-1 -3,-1 -5,-2l-1 -2c-5,-5 -4,-7 -6,-11 -1,-3 -4,-4 -6,-7 -8,-7 -5,-15 -6,-20 0,-5 -6,-10 -3,-21 2,-6 4,-4 4,-12 0,-2 -1,-2 -1,-4 0,0 1,-2 1,-3 1,-7 6,-11 9,-14 3,-3 3,-6 6,-11 4,-7 11,-8 14,-9 5,-3 5,-8 13,-11 6,-2 10,0 15,-1 3,-1 6,-3 12,-4zm-57 175c0,-2 10,-25 12,-30l5 -10c4,1 5,6 10,9 10,6 13,0 21,4 2,1 3,2 6,2 -1,1 -1,1 -1,2l-14 31c-3,5 -4,11 -10,4 -11,-11 -6,-8 -25,-8 -3,0 -4,-1 -4,-4zm39 -164c14,0 12,-4 20,-4 7,0 5,4 19,4 1,0 1,0 2,0 10,0 10,9 20,12 13,4 7,10 16,19 3,3 4,3 6,7 3,7 -1,9 3,18 0,1 1,2 1,4 4,9 -3,12 -3,20 0,6 2,11 -6,17 -6,4 -5,9 -8,14 -4,6 -8,4 -15,9 -4,3 -5,9 -14,9 -3,0 -4,-1 -6,0 -2,0 -3,0 -5,1 -5,1 -5,3 -11,3 -5,0 -5,-3 -15,-4 -2,-1 -4,0 -6,0 -9,0 -9,-7 -18,-11 -1,-1 -2,-1 -4,-2 -10,-3 -7,-13 -15,-19 -2,-2 -3,-3 -5,-6 -2,-4 -1,-6 -1,-11 0,-10 -8,-11 -2,-23 5,-9 -1,-14 5,-22 2,-3 6,-5 8,-10 3,-5 2,-10 11,-13 12,-4 10,-11 21,-12 1,0 1,0 2,0z"/>
   <path class="fil0" d="M23 77c0,-6 1,-8 1,-11l15 0 0 39 -7 0c0,-1 -1,-2 -1,-3 -2,-3 -3,-5 -5,-9 -1,-4 -3,-11 -3,-16zm53 -18c0,4 5,3 13,3 4,0 13,-1 13,3 0,5 -7,2 -7,7 0,6 10,1 10,6 0,4 -2,4 -6,4 -2,0 -4,1 -4,3 0,5 7,2 7,6 0,3 -2,4 -4,4 -3,0 -5,0 -6,2 -1,1 0,3 2,4 3,2 4,0 4,5 0,1 -1,2 -3,2l-17 0c-5,0 -10,-7 -20,-7l-12 0 0 -32c6,0 9,-1 12,-4l16 -17c2,-3 6,-8 8,-8 7,0 0,8 -2,11 -1,1 -1,2 -2,3 -1,2 -2,3 -2,5zm-27 3l-3 0c-2,0 -2,-3 -8,-3 -4,0 -8,0 -12,0 1,-6 9,-18 15,-23 1,0 1,-1 3,-2 12,-9 27,-13 43,-10 9,2 19,7 25,14 2,2 4,4 6,6 5,7 10,18 10,28 0,12 -1,20 -7,30l-5 7c-1,1 -1,1 -2,2 -7,9 -24,16 -35,16 -11,0 -17,0 -27,-5 -4,-2 -12,-7 -14,-11 8,0 5,-3 8,-3l13 0c7,0 11,7 20,7l16 0c5,0 10,-4 10,-10 0,-3 -1,-3 -1,-5 6,-4 4,-9 3,-13 2,-2 7,-6 3,-13 -1,-2 -2,-2 -3,-4 1,-3 2,-4 1,-8 -1,-2 -2,-4 -5,-5 -3,-2 -12,-1 -18,-1 2,-5 7,-9 7,-14 0,-8 -11,-13 -17,-5l-6 6c-1,0 -1,1 -2,2l-13 14c-1,2 -2,3 -5,3zm-33 13c0,25 14,44 34,54 12,6 26,7 40,4 6,-2 10,-4 15,-7 7,-3 15,-11 19,-17 14,-21 14,-46 0,-67 -8,-12 -21,-20 -35,-24 -15,-4 -29,-1 -42,6 -17,9 -31,29 -31,51z"/>
  </g>
 </g>
</svg>
