<?xml version="1.0" encoding="UTF-8"?>
<!DOCTYPE svg PUBLIC "-//W3C//DTD SVG 1.0//EN" "http://www.w3.org/TR/2001/REC-SVG-20010904/DTD/svg10.dtd">
<!-- Creator: CorelDRAW X7 -->
<svg xmlns="http://www.w3.org/2000/svg" xml:space="preserve" width="585px" height="584px" version="1.0" style="shape-rendering:geometricPrecision; text-rendering:geometricPrecision; image-rendering:optimizeQuality; fill-rule:evenodd; clip-rule:evenodd"
viewBox="0 0 256 256"
 xmlns:xlink="http://www.w3.org/1999/xlink">
 <defs>
  <style type="text/css">
   <![CDATA[
    .fil0 {fill:#663300}
   ]]>
  </style>
 </defs>
 <g id="Layer_x0020_1">
  <metadata id="CorelCorpID_0Corel-Layer"/>
  <path class="fil0" d="M186 147c-4,-1 -11,-7 -14,-7 -3,0 -5,3 -3,6 0,2 17,11 19,10 3,0 4,-3 5,-5 1,-3 2,-5 3,-7 2,-5 4,-9 7,-14 1,-2 3,-5 2,-7 0,-3 -3,-5 -6,-3 -2,1 -5,10 -7,13 -1,4 -5,10 -6,14zm-186 -53l0 3c1,2 14,66 15,74 1,6 2,6 10,12 11,8 26,22 37,30 1,11 0,23 0,33 0,3 0,6 1,8 1,2 3,3 5,1 3,-2 2,-11 2,-15 0,-6 0,-11 0,-17 0,-4 1,-12 -1,-15l-38 -30c-10,-9 -7,-4 -11,-23 -2,-9 -4,-18 -5,-28 -2,-9 -5,-19 -6,-28 10,-1 15,0 19,6 7,11 15,35 16,36 1,1 8,2 10,3 3,1 6,2 9,4 16,7 16,17 20,18 4,1 6,-3 4,-7 -7,-12 -17,-18 -29,-22 0,-30 0,-60 0,-90 0,-8 0,-14 6,-16 6,-3 13,2 13,8 1,6 0,36 0,45 0,3 -1,8 1,10 2,2 7,1 7,-2 1,-4 0,-62 0,-68 0,-8 0,-13 7,-15 6,-3 12,2 12,9 1,15 0,48 0,67 0,3 0,7 2,9 3,2 6,0 6,-3 1,-6 0,-37 0,-45 0,-8 1,-14 7,-16 7,-2 12,3 13,9 1,14 0,31 0,45 0,3 -1,8 1,9 3,2 6,0 7,-3 1,-17 -5,-34 7,-38 7,-2 12,3 12,9 0,1 0,21 0,25 -24,13 -38,42 -27,73 5,13 14,23 25,30 -4,4 -9,13 -12,17 -1,1 -3,3 -4,5 -1,4 0,32 0,38 0,10 8,8 8,2 0,-6 -1,-36 1,-38 0,-1 1,-2 2,-3l12 -18 0 0c3,1 7,3 11,3 13,3 16,1 25,0 2,3 14,29 17,34 3,5 7,14 9,17 11,14 31,2 26,-14 -2,-6 -25,-46 -26,-51 4,-3 10,-10 12,-15 3,-7 6,-12 7,-20 4,-30 -15,-57 -42,-64 -13,-4 -25,-3 -36,1 0,-8 0,-18 0,-19 0,-7 -1,-14 -10,-18 -6,-4 -12,-2 -17,1 -1,-12 0,-15 -7,-21 -2,-2 -6,-4 -9,-4 -6,-1 -7,1 -12,2 0,-9 0,-16 -8,-21 -2,-2 -4,-2 -7,-3l-6 0c-3,2 -7,2 -11,8 -4,6 -2,9 -3,16 -11,-5 -20,-1 -25,6 -4,8 -2,24 -2,34 0,9 1,66 0,71l-7 -17c-2,-6 -5,-11 -8,-17 -6,-10 -20,-12 -31,-10 -3,1 -3,1 -4,3zm167 -2c0,0 0,1 0,0 -19,8 -32,27 -30,51 2,26 25,48 55,45 26,-2 48,-25 45,-55 -2,-25 -26,-48 -54,-45 -6,1 -11,2 -16,4zm20 1c12,0 23,5 31,14 9,8 14,19 14,31 0,13 -5,24 -14,32 -8,8 -19,13 -31,13 -13,0 -24,-5 -32,-13 -8,-8 -13,-19 -13,-32 0,-12 5,-23 13,-31 8,-9 19,-14 32,-14zm26 19c-7,-7 -16,-11 -26,-11 -10,0 -20,4 -26,11 -7,7 -11,16 -11,26 0,10 4,20 11,26 6,7 16,11 26,11 10,0 19,-4 26,-11 7,-6 11,-16 11,-26 0,-10 -4,-19 -11,-26zm15 -48c2,-2 3,-1 4,-3 2,-1 2,-3 3,-4 4,7 -1,2 6,7 -4,3 -2,-2 -6,7 -1,-2 -1,-4 -3,-5 -1,-1 -3,-1 -4,-2zm28 1l0 -3c-4,-4 -11,-5 -13,-7 -3,-4 -3,-13 -9,-13 -4,0 -5,10 -8,13 -2,3 -13,3 -13,9 0,5 10,5 13,8 3,2 4,13 8,13 6,1 7,-9 9,-12 1,-2 1,-1 3,-2 4,-2 8,-3 10,-6zm-34 156c3,5 5,10 8,14 2,4 4,12 11,8 7,-3 2,-10 0,-15 -2,-4 -20,-39 -22,-41 -1,1 -10,5 -11,6l14 28zm-26 -201c2,2 2,6 4,8 3,2 6,2 8,3 -1,1 -6,3 -8,4 -1,2 -2,6 -4,8 -1,-2 -2,-6 -3,-8 -1,-1 -7,-3 -9,-4 2,-1 6,-2 8,-3 2,-2 3,-6 4,-8zm-1 -15c-3,1 -4,6 -5,9 -4,10 -2,7 -14,12 -3,1 -8,3 -6,7 2,4 15,5 17,10 4,7 5,17 11,15 4,-2 5,-15 9,-17 8,-4 18,-5 16,-11 -2,-4 -15,-6 -17,-10 -2,-2 -3,-6 -4,-9 -2,-3 -3,-8 -7,-6z"/>
 </g>
</svg>
