<?xml version="1.0" standalone="no"?>
<!DOCTYPE svg PUBLIC "-//W3C//DTD SVG 20010904//EN"
 "http://www.w3.org/TR/2001/REC-SVG-20010904/DTD/svg10.dtd">
<svg fill="#653307" version="1.0" xmlns="http://www.w3.org/2000/svg"
 width="512.000000pt" height="512.000000pt" viewBox="0 0 512.000000 512.000000"
 preserveAspectRatio="xMidYMid meet">

<g transform="translate(0.000000,512.000000) scale(0.100000,-0.100000)"
fill="#653307" stroke="none">
<path d="M1260 4994 c-8 -4 -25 -16 -37 -27 -22 -20 -23 -27 -23 -198 0 -387
82 -641 270 -830 70 -71 101 -94 173 -128 104 -51 237 -81 357 -81 81 0 255
21 293 36 14 5 25 -11 63 -92 114 -242 186 -521 230 -889 30 -249 29 -787 -2
-1013 l-6 -42 -52 6 c-166 21 -263 56 -460 168 -269 153 -534 262 -791 325
-311 76 -577 42 -845 -109 -137 -77 -290 -203 -380 -311 l-50 -60 0 -434 0
-434 23 -26 c19 -23 34 -28 107 -36 403 -45 571 -75 785 -140 149 -47 278 -98
735 -296 473 -205 474 -205 593 -233 198 -47 427 -45 625 5 52 14 253 87 446
164 193 77 378 147 411 155 346 88 600 287 752 591 72 142 643 1451 643 1472
0 32 -38 72 -74 78 -51 10 -222 -14 -300 -42 -104 -37 -204 -103 -282 -186
-38 -40 -217 -245 -399 -454 l-330 -382 -42 49 c-24 26 -63 60 -87 74 -88 51
-130 56 -509 56 l-348 0 5 33 c3 17 8 68 11 112 17 227 97 545 187 747 35 77
25 74 133 43 91 -26 268 -31 341 -10 288 83 459 382 504 887 20 216 11 293
-36 319 -36 19 -320 16 -446 -5 -295 -48 -508 -184 -606 -386 -61 -123 -76
-192 -76 -340 1 -131 13 -216 45 -312 l19 -56 -29 -64 -29 -63 -6 35 c-3 19
-10 85 -16 145 -36 362 -129 704 -264 973 l-44 88 20 45 c59 131 90 306 77
434 -35 340 -321 551 -840 620 -123 17 -415 29 -439 19z m380 -179 c279 -33
482 -107 608 -220 70 -63 120 -165 128 -260 5 -70 -12 -199 -35 -259 l-12 -29
-36 44 c-64 77 -180 187 -255 240 -93 65 -219 129 -256 129 -59 0 -95 -55 -72
-111 8 -19 33 -39 83 -65 144 -75 264 -172 369 -298 36 -43 46 -62 38 -70 -7
-7 -67 -11 -173 -11 -145 0 -170 3 -232 24 -91 31 -141 60 -203 120 -141 135
-212 337 -228 652 l-7 129 79 0 c44 0 135 -7 204 -15z m2130 -1160 c0 -203
-59 -467 -138 -620 -80 -153 -194 -228 -347 -229 -68 0 -198 24 -214 39 -2 3
22 44 55 92 70 103 191 233 283 305 80 63 81 65 81 106 0 22 -8 41 -26 59 -33
33 -74 27 -141 -18 -74 -50 -242 -224 -315 -326 l-65 -92 -7 46 c-19 139 7
298 65 399 106 185 344 288 682 293 l87 1 0 -55z m1130 -1220 c0 -8 -548
-1251 -576 -1308 -122 -242 -335 -408 -619 -485 -61 -16 -256 -88 -435 -160
-179 -71 -356 -139 -394 -151 -217 -67 -469 -65 -680 4 -43 14 -264 106 -491
205 -227 99 -465 200 -528 224 -284 110 -576 176 -939 212 l-68 6 0 358 0 358
89 84 c145 138 329 247 497 293 92 25 293 31 391 11 273 -55 562 -169 847
-334 149 -86 264 -135 386 -164 78 -19 128 -21 590 -27 553 -7 532 -4 592 -68
76 -80 76 -206 0 -286 -61 -65 -22 -61 -752 -68 -708 -6 -736 -8 -912 -60
l-67 -19 19 -53 c10 -28 23 -64 28 -79 l11 -26 63 19 c147 44 231 49 870 49
362 0 626 4 658 10 76 14 138 48 195 105 61 61 93 124 108 213 l11 67 389 450
c408 472 444 511 516 553 73 43 201 85 201 67z"/>
</g>
</svg>
