<?xml version="1.0" standalone="no"?>
<!DOCTYPE svg PUBLIC "-//W3C//DTD SVG 20010904//EN"
 "http://www.w3.org/TR/2001/REC-SVG-20010904/DTD/svg10.dtd">
<svg fill="#653307" version="1.0" xmlns="http://www.w3.org/2000/svg"
 width="512.000000pt" height="512.000000pt" viewBox="0 0 512.000000 512.000000"
 preserveAspectRatio="xMidYMid meet">

<g transform="translate(0.000000,512.000000) scale(0.100000,-0.100000)"
fill="#653307" stroke="none">
<path d="M1057 5064 c-13 -27 -86 -179 -162 -339 -76 -159 -139 -292 -141
-294 -2 -2 -168 -27 -369 -56 -202 -30 -369 -55 -371 -58 -3 -3 117 -121 266
-262 243 -232 270 -261 266 -284 -20 -98 -117 -694 -114 -701 2 -6 148 67 326
160 178 94 325 170 327 170 2 0 148 -76 326 -170 177 -93 324 -168 326 -166 2
2 -24 168 -58 370 l-61 368 108 103 109 103 107 -106 106 -107 -62 -367 c-35
-203 -61 -368 -58 -368 3 0 151 77 328 170 l324 170 72 -36 c40 -20 187 -97
327 -171 139 -73 255 -132 257 -130 2 2 -25 168 -59 370 l-62 366 50 51 c28
29 76 74 108 102 l58 51 103 -102 102 -102 -59 -365 c-33 -200 -58 -367 -55
-370 3 -3 148 72 322 166 l317 171 320 -171 c176 -95 322 -171 323 -169 2 2
-23 169 -56 371 l-61 368 263 257 c217 212 259 258 244 264 -11 4 -165 28
-344 54 -179 25 -334 48 -345 50 -16 3 -57 83 -180 345 -88 187 -162 340 -165
340 -3 0 -77 -153 -164 -340 -124 -264 -165 -342 -180 -345 -12 -3 -101 -17
-200 -31 l-178 -27 -205 29 c-113 16 -211 33 -218 39 -6 5 -83 160 -170 343
-87 182 -161 332 -164 332 -3 0 -78 -152 -166 -336 -87 -185 -166 -339 -175
-344 -8 -4 -103 -20 -211 -35 l-195 -28 -190 27 c-104 14 -198 28 -210 31 -15
3 -56 81 -179 337 -87 183 -162 337 -166 342 -4 5 -18 -13 -32 -40z m298 -931
c77 -12 142 -22 145 -22 2 -1 -42 -48 -99 -105 l-105 -105 25 -145 c14 -81 22
-146 18 -146 -4 0 -63 29 -131 65 l-124 65 -124 -65 c-67 -36 -127 -65 -132
-65 -4 0 -6 10 -3 23 2 12 14 78 26 147 l21 125 -107 102 c-97 92 -105 102
-84 107 27 5 249 36 262 36 5 0 38 62 74 137 l67 138 65 -135 66 -135 140 -22z
m1488 2 c73 -10 138 -21 145 -24 8 -5 -22 -40 -88 -105 -59 -59 -100 -107
-100 -118 0 -11 9 -76 21 -145 12 -68 19 -127 16 -129 -3 -3 -61 24 -130 60
l-124 66 -127 -66 c-70 -36 -129 -64 -131 -62 -3 2 7 69 21 149 l25 144 -107
102 c-97 92 -104 102 -83 107 13 3 80 13 148 22 l123 18 65 135 65 136 65
-136 65 -136 131 -18z m1277 154 c30 -66 60 -124 65 -128 6 -5 64 -16 130 -25
66 -10 128 -20 139 -23 15 -4 -1 -24 -84 -108 l-103 -104 22 -133 c12 -73 21
-139 21 -146 0 -8 -47 12 -125 53 l-125 66 -121 -66 c-67 -36 -123 -64 -126
-62 -2 3 7 69 21 148 l24 144 -101 102 c-66 68 -95 104 -86 107 8 3 71 12 140
22 l126 17 59 128 c32 71 61 128 64 128 3 0 30 -54 60 -120z"/>
<path d="M2480 2690 c-254 -39 -453 -229 -506 -480 -54 -259 84 -531 328 -649
46 -22 101 -43 123 -47 61 -10 77 -23 30 -24 -129 -1 -336 -76 -480 -173 -77
-52 -214 -185 -262 -254 -20 -29 -40 -53 -44 -53 -5 0 -34 16 -64 36 -110 70
-330 144 -427 144 -24 0 -37 4 -33 10 3 6 16 10 28 10 44 1 163 51 230 96 152
104 242 265 254 451 7 117 -8 195 -58 300 -98 204 -299 333 -524 336 -106 2
-175 -13 -270 -59 -161 -76 -285 -230 -326 -404 -17 -75 -15 -202 5 -279 37
-143 150 -296 270 -366 59 -35 168 -75 201 -75 51 0 23 -17 -38 -24 -137 -14
-323 -85 -458 -176 -82 -56 -213 -187 -269 -269 -60 -89 -127 -235 -150 -327
-21 -80 -40 -252 -40 -356 l0 -58 2562 0 2561 0 -6 143 c-7 160 -22 246 -66
367 -113 309 -375 551 -696 645 -50 14 -118 29 -152 32 -35 3 -63 9 -63 13 0
4 21 10 46 14 25 3 84 24 131 46 67 31 100 55 157 112 82 82 117 138 152 236
95 274 -36 592 -298 722 -239 118 -504 74 -693 -115 -250 -250 -227 -656 50
-882 62 -51 182 -110 241 -119 57 -8 67 -24 16 -24 -98 0 -343 -88 -465 -167
-27 -17 -29 -17 -39 1 -30 54 -145 179 -218 238 -145 118 -351 207 -516 224
-74 8 -73 15 5 32 72 16 166 62 224 111 224 187 288 480 160 740 -107 218
-374 357 -613 321z m206 -324 c63 -29 114 -79 145 -142 36 -72 34 -189 -3
-260 -118 -225 -435 -216 -542 15 -30 66 -28 179 3 241 79 155 243 216 397
146z m-1509 -291 c102 -43 173 -143 181 -255 7 -98 -17 -160 -87 -231 -71 -71
-132 -94 -232 -87 -242 18 -360 308 -200 491 85 96 224 130 338 82z m3003 -6
c58 -26 115 -81 148 -144 38 -73 38 -178 -1 -257 -65 -134 -224 -200 -365
-154 -107 36 -190 145 -200 262 -18 223 212 384 418 293z m-1435 -894 c108
-27 235 -98 319 -176 167 -156 233 -307 243 -556 l6 -143 -753 0 -753 0 6 138
c9 199 43 308 142 447 114 161 286 267 493 305 64 12 224 4 297 -15z m-1480
-305 c83 -24 173 -67 236 -114 l47 -35 -14 -63 c-8 -35 -17 -129 -21 -210 l-6
-148 -594 0 -593 0 6 28 c14 60 59 161 101 226 114 177 298 295 521 336 73 14
238 3 317 -20z m2925 16 c259 -47 478 -223 575 -463 12 -32 26 -73 30 -90 l7
-33 -595 0 -594 0 -6 148 c-3 81 -11 176 -18 210 -15 73 -16 71 92 136 151 90
333 123 509 92z"/>
</g>
</svg>
