<?xml version="1.0" encoding="UTF-8"?>
<!DOCTYPE svg PUBLIC "-//W3C//DTD SVG 1.0//EN" "http://www.w3.org/TR/2001/REC-SVG-20010904/DTD/svg10.dtd">
<!-- Creator: CorelDRAW X7 -->
<svg xmlns="http://www.w3.org/2000/svg" xml:space="preserve" width="566px" height="350px" version="1.0" style="shape-rendering:geometricPrecision; text-rendering:geometricPrecision; image-rendering:optimizeQuality; fill-rule:evenodd; clip-rule:evenodd"
viewBox="0 0 240 148"
 xmlns:xlink="http://www.w3.org/1999/xlink">
 <defs>
  <style type="text/css">
   <![CDATA[
    .fil0 {fill:#663300}
   ]]>
  </style>
 </defs>
 <g id="Layer_x0020_1">
  <metadata id="CorelCorpID_0Corel-Layer"/>
  <path class="fil0" d="M102 141c-4,0 -5,-3 -5,-6 0,-2 1,-3 2,-5 1,-1 1,-1 2,-2 3,-4 6,-8 10,-8 3,0 8,4 3,10l-5 6c-2,2 -4,5 -7,5zm108 -129l0 0c0,-2 -1,-4 -1,-5 -2,1 -3,1 -5,2 -4,2 -10,5 -14,6 0,2 10,27 12,30 2,6 9,26 12,31 5,-2 14,-7 18,-7 0,-5 -6,-16 -8,-22l-11 -29c-1,-2 -2,-4 -3,-6l0 0zm14 15l7 16c0,1 1,3 1,4l5 12c2,4 3,7 3,9l0 2c-1,3 -4,5 -12,8 -11,4 -13,7 -20,3 -3,1 -10,7 -13,8 0,2 1,3 1,6 0,7 -6,13 -13,14l-5 0c0,4 -3,8 -5,10 -4,2 -7,3 -11,3 -1,3 -2,6 -4,9 -5,5 -10,4 -16,4 0,3 -1,5 -3,8l-1 0c-10,10 -20,-1 -23,-2 -2,1 -3,3 -5,5 -6,4 -18,4 -21,-9 -4,0 -7,-2 -10,-4 -2,-2 -4,-5 -4,-9 -7,0 -14,-4 -14,-12 -5,0 -8,-1 -11,-4 -6,-6 -3,-11 -2,-16 -23,-15 -15,-9 -22,-9 -2,0 -18,-6 -22,-8 -3,-2 -4,-5 -4,-8 0,-1 3,-7 3,-9l21 -53c4,-8 10,-4 17,-2 3,1 6,3 9,4 10,4 6,5 8,9 1,3 10,4 13,4 7,0 17,1 22,1 11,2 8,5 14,-1 7,-7 14,-5 23,-4 12,2 23,4 34,5 2,0 4,0 6,0 4,-1 9,-3 12,-4 0,-8 5,-9 11,-11 20,-8 19,-10 26,7 1,2 4,9 5,14zm-94 -3c0,-1 -1,-1 -1,-1 -12,-2 -12,-2 -21,7l-5 4c-7,6 -13,12 -20,16 -2,1 -5,3 -5,4 0,3 6,6 10,6 5,0 11,-4 14,-6 4,-3 8,-8 13,-8 5,0 8,6 15,10 14,9 27,4 30,6 4,1 24,17 30,22 1,-1 1,-1 1,-1 1,-1 1,-1 1,-1l6 -3c2,-2 4,-3 7,-5 0,-4 -8,-21 -10,-25 -2,-5 -8,-22 -10,-25 -5,0 -11,5 -18,5 -13,-2 -24,-3 -37,-5zm-42 105c-4,0 -6,-3 -6,-7 1,-2 7,-8 9,-11 1,-1 2,-2 4,-3 3,-1 11,2 5,10l-7 8c-1,2 -2,3 -5,3zm-13 -12c-3,0 -4,0 -6,-2 -4,-5 3,-10 8,-17 5,-6 15,0 9,8 -1,1 -2,2 -4,4 0,1 0,1 -1,2 -2,2 -3,5 -6,5zm-15 -12c-4,0 -9,-4 -4,-11l7 -8c3,-4 11,-4 11,4 0,2 -5,7 -6,9 -2,2 -5,6 -8,6zm55 -51c4,2 7,6 15,10 8,4 14,5 24,5 4,0 2,-1 5,1 2,1 3,2 5,3l17 13c2,1 3,2 4,3 7,5 2,18 -9,10 -2,-1 -4,-2 -5,-4 -2,-1 -9,-7 -11,-7 -3,0 -7,3 -1,7 2,2 3,3 5,4 3,2 7,5 7,8 0,5 -5,11 -12,5 -2,-1 -3,-2 -5,-3 -1,-1 -3,-2 -4,-4 -1,0 -2,-1 -3,-1 -4,-4 -6,0 -6,2 0,2 4,5 7,7 1,1 2,2 4,3 6,5 -1,16 -9,10l-9 -6c-1,-1 -3,-3 -5,-3 -3,0 -5,4 -2,7 2,1 2,1 4,2 2,2 4,3 4,7 0,5 -5,9 -11,5 -1,-1 -3,-2 -4,-3 1,-3 4,-5 4,-10 0,-3 -2,-8 -4,-9 -3,-2 -6,-4 -11,-4 0,-7 -6,-12 -14,-12 0,-6 -6,-12 -14,-12 0,-10 -13,-16 -22,-8l-6 7c-1,-1 -3,-2 -4,-3l-14 -9 20 -51c3,0 5,1 7,2 6,2 9,1 11,1l17 1c2,1 4,1 7,1 -1,2 -6,6 -8,7l-9 7c-3,2 -7,4 -8,7 -6,11 12,25 34,10 3,-2 8,-6 9,-6zm-89 22c-4,-1 -16,-7 -19,-7 1,-2 2,-6 3,-8 2,-6 21,-51 21,-54l14 6c2,0 4,1 5,2 0,1 -2,6 -3,7l-21 54z"/>
 </g>
</svg>
