<svg xmlns="http://www.w3.org/2000/svg" width="2155" height="211" viewBox="0 0 2155 211">
  <g id="Group_2168" data-name="Group 2168" transform="translate(113 -4051)">
    <g id="Group_2165" data-name="Group 2165">
      <g id="Group_2164" data-name="Group 2164">
        <g id="Group_1713" data-name="Group 1713">
          <path id="Path_6591" data-name="Path 6591" d="M1668,4245c24,0,43-5,43-10,0-6-19-11-43-11-15,0-29,2-36,5,11,2,19,0,21,2,2,1-1,0,2,1l11-1c-5,9-29,7-41,4C1627,4241,1645,4245,1668,4245Z" fill="#8c8d91" fill-rule="evenodd"/>
          <path id="Path_6592" data-name="Path 6592" d="M-113,4182H1606v3H-113Zm1796,3c-1,1-1,1-2,1l-1-1,18-44c1,0,1-1,2,0h1l29,80,22-66,1-1,1,1h0l11,23,11-125a3.491,3.491,0,0,1,1-2l2,2,25,199,33-121c1,0,1-1,2-1a.979.979,0,0,0,1,1l18,81,7-29h176a.979.979,0,0,1,1,1l-1,1H1867l-8,32v1c-1,0-2,0-2-1l-18-80-34,124h0l-1,1a.979.979,0,0,1-1-1l-26-196-10,117c0,1,0,1-1,1,0,1-1,0-1,0l-12-24-22,66h-1c0,1-1,0-1,0l-30-80Z" fill="#630" fill-rule="evenodd"/>
          <path id="Path_6593" data-name="Path 6593" d="M1633,4222c1,0,1-1,1,0l1,1C1634,4223,1633,4224,1633,4222Zm1-54c2-1,9,0,11,0,2,4,1,43,1,53v2h-1c-1-2,0-4,0-6l-1-47Zm22,49h0v-1l2-21,3-27h-3l-1,1c-3,0-2,0-3-1l8-2c0,3-4,48-5,53v1c-1-1-1,0-1-1Zm-37-50c1-1-1-1,2-1h2c7,1,7,1,7,6a87.524,87.524,0,0,0,2,16c0,5,3,31,1,32-1-2-4-44-5-52C1625,4168,1622,4167,1619,4167Zm51-2c1,0,1,0,2-1,3-1,1-1,4-1,0,8-6,39-8,50,0,2,0,4-2,6,0-12,7-41,8-54l-6,1h1v-1Zm-48,54c-2-4-7-35-8-43-1-4-1-10-3-12l-1-1c4,0,4,1,4,4C1616,4173,1624,4217,1622,4219Zm-16-59v5l7,45c1,9,0,10,5,12,15,7,55,6,55-4v-7c-1-2,2-19,2-22,1-5,2-11,3-16a22.018,22.018,0,0,1,1-8c1-5,2-2,2-6-16,9-50,8-68,3l-5-2C1606,4159,1608,4159,1606,4160Z" fill="#fdbe4a" fill-rule="evenodd"/>
          <path id="Path_6594" data-name="Path 6594" d="M1615,4225c3,0,5,2,9,3,16,3,26,1,29,3,2,1-1,0,2,1l11-1c-5,9-32,7-43,4C1618,4233,1614,4231,1615,4225Zm68-74v4l-8,55c-1,3-1,6-2,8,0,10-40,11-55,4-5-2-4-3-5-12l-7-45c-1-2-3-13-3-13v-1l-3-25c7,2,7,4,20,6,17,3,41,3,58-3,3-1,6-3,9-3Zm-46-49c23-4,76,10,39,23-40,13-105-6-65-19C1623,4102,1628,4103,1637,4102Zm-27,126c1,7,5,9,12,11,4,2,14,3,19,3,6,0,13,0,16-1l10-2c8-3,10-6,10-12a200.235,200.235,0,0,1,4-24c2-19,6-38,8-57,5-31,12-38-17-46a90.581,90.581,0,0,0-33-3c-14,0-32,2-42,11-5,5-4,8-3,15Z" fill="#630" fill-rule="evenodd"/>
          <path id="Path_6595" data-name="Path 6595" d="M1603,4151v1l2,4,15,4h0c4,0,11,0,14,1h15c11-1,17-1,27-4l7-2v-4c-3-1-5-3-9-3-17-5-45-5-62,0Z" fill="#f48e31" fill-rule="evenodd"/>
          <path id="Path_6596" data-name="Path 6596" d="M1678,4158c-2,0-5,2-7,2-14,4-45,5-55,1a62.136,62.136,0,0,1-10-3v2c2-1,0-1,2,0l5,2c18,5,52,6,68-3,1-4,1-1-1-2Z" fill="#eb9437" fill-rule="evenodd"/>
          <path id="Path_6597" data-name="Path 6597" d="M1620,4160c-2,0-3-1-4,1,10,4,41,3,55-1,2,0,5-2,7-2-1-1,2-1-2-1-10,3-16,3-27,4h-15C1631,4160,1624,4160,1620,4160Z" fill="#693a12" fill-rule="evenodd"/>
          <path id="Path_6598" data-name="Path 6598" d="M1676,4157c4,0,1,0,2,1l2-1c2,1,2-2,1,2,0,4-1,1-2,6a22.018,22.018,0,0,0-1,8c-1,5-2,11-3,16,0,3-3,20-2,22v7c1-2,1-5,2-8l8-55Z" fill="#9c7328" fill-rule="evenodd"/>
          <path id="Path_6599" data-name="Path 6599" d="M1622,4219c2-2-6-46-8-52,0-3,0-4-4-4l1,1c2,2,2,8,3,12C1615,4184,1620,4215,1622,4219Z" fill="#9c7328" fill-rule="evenodd"/>
          <path id="Path_6600" data-name="Path 6600" d="M1619,4167c3,0,6,1,9,1,1,8,4,50,5,52,2-1-1-27-1-32a87.524,87.524,0,0,1-2-16c0-5,0-5-7-6h-2C1618,4166,1620,4166,1619,4167Z" fill="#9c7328" fill-rule="evenodd"/>
          <path id="Path_6601" data-name="Path 6601" d="M1634,4168l10,2,1,47c0,2-1,4,0,6h1v-2c0-10,1-49-1-53C1643,4168,1636,4167,1634,4168Z" fill="#a77a28" fill-rule="evenodd"/>
          <path id="Path_6602" data-name="Path 6602" d="M1668,4166l6-1c-1,13-8,42-8,54,2-2,2-4,2-6,2-11,8-42,8-50-3,0-1,0-4,1-1,1-1,1-2,1h-1v1Z" fill="#966919" fill-rule="evenodd"/>
          <path id="Path_6603" data-name="Path 6603" d="M1654,4168c1,1,0,1,3,1l1-1h3l-3,27-2,21v1h0v2c0,1,0,0,1,1v-1c1-5,5-50,5-53Z" fill="#966b26" fill-rule="evenodd"/>
          <path id="Path_6604" data-name="Path 6604" d="M1606,4165v-7a62.136,62.136,0,0,0,10,3c1-2,2-1,4-1h0l-15-4-2-4S1605,4163,1606,4165Z" fill="#693a12" fill-rule="evenodd"/>
          <path id="Path_6605" data-name="Path 6605" d="M1635,4223l-1-1c0-1,0,0-1,0C1633,4224,1634,4223,1635,4223Z" fill="#d28a32" fill-rule="evenodd"/>
        </g>
      </g>
    </g>
  </g>
</svg>
