<?xml version="1.0" encoding="UTF-8"?>
<!DOCTYPE svg PUBLIC "-//W3C//DTD SVG 1.0//EN" "http://www.w3.org/TR/2001/REC-SVG-20010904/DTD/svg10.dtd">
<!-- Creator: CorelDRAW X7 -->
<svg xmlns="http://www.w3.org/2000/svg" xml:space="preserve" width="1341px" height="850px" version="1.0" style="shape-rendering:geometricPrecision; text-rendering:geometricPrecision; image-rendering:optimizeQuality; fill-rule:evenodd; clip-rule:evenodd"
viewBox="0 0 1334 846"
 xmlns:xlink="http://www.w3.org/1999/xlink">
 <defs>
  <style type="text/css">
   <![CDATA[
    .str0 {stroke:#663300;stroke-width:4.89342}
    .fil1 {fill:#FEFEFE}
    .fil0 {fill:#663300}
    .fil2 {fill:#663300;fill-rule:nonzero}
   ]]>
  </style>
 </defs>
 <g id="Layer_x0020_1">
  <metadata id="CorelCorpID_0Corel-Layer"/>
  <g id="_2097489337712">
   <g>
    <g>
     <path class="fil0" d="M538 353c-5,-4 0,-6 -5,-8 -13,0 -37,2 -49,0 -12,-2 -21,-12 -20,-27l332 0c2,41 -56,24 -70,27 -4,2 -1,0 -3,5 -3,6 -6,6 -13,6l-135 0c-9,0 -33,1 -37,-3zm24 -264c8,-2 41,-1 51,-1 9,1 12,8 9,17 -7,19 -81,-22 -81,45 0,34 0,68 0,101 0,19 5,29 16,36 19,12 61,-5 65,11 3,10 -1,15 -10,15 -37,2 -61,5 -80,-22 -9,-11 -11,-23 -11,-40 0,-33 0,-67 0,-101 0,-28 11,-54 41,-61zm162 216c-16,11 -39,8 -61,8 -39,0 -37,7 -37,-32 0,-23 0,-46 0,-68 0,-40 -5,-35 34,-35 5,0 12,-1 15,3 2,3 3,10 0,15 -3,7 -20,3 -29,4l0 91c14,1 55,2 65,-3 18,-10 17,-27 17,-52 0,-23 0,-46 0,-69 0,-25 2,-42 -15,-53 -11,-8 -47,-5 -64,-5 -12,0 -23,3 -23,-12 1,-13 12,-10 23,-10 17,0 52,-2 66,3 14,6 27,20 31,37 4,15 2,49 2,66 0,45 9,89 -24,112zm-72 -239c0,5 3,6 5,10 -6,0 -22,3 -14,-17 2,-5 4,-8 6,-13 2,-7 -1,-7 -1,-13 12,-1 10,12 7,20 -1,4 -4,9 -3,13zm-33 -6c0,11 5,10 7,16l-15 0c-11,-18 1,-32 6,-49 4,-12 -2,-12 -1,-18 7,-1 10,6 10,13 1,12 -7,25 -7,38zm-134 -60c-27,3 -47,22 -50,48l0 291c2,25 23,46 48,49 8,1 280,1 291,0 25,-3 46,-23 49,-48 1,-9 1,-280 0,-291 -3,-26 -23,-46 -48,-49l-290 0z"/>
     <g>
      <path class="fil1" d="M646 291l0 -91c9,-1 26,3 29,-4 3,-5 2,-12 0,-15 -3,-4 -10,-3 -15,-3 -39,0 -34,-5 -34,35 0,22 0,45 0,68 0,39 -2,32 37,32 22,0 45,3 61,-8 33,-23 24,-67 24,-112 0,-17 2,-51 -2,-66 -4,-17 -17,-31 -31,-37 -14,-5 -49,-3 -66,-3 -11,0 -22,-3 -23,10 0,15 11,12 23,12 17,0 53,-3 64,5 17,11 15,28 15,53 0,23 0,46 0,69 0,25 1,42 -17,52 -10,5 -51,4 -65,3z"/>
      <path class="fil1" d="M533 345c5,2 0,4 5,8 4,4 28,3 37,3l135 0c7,0 10,0 13,-6 2,-5 -1,-3 3,-5 14,-3 72,14 70,-27l-332 0c-1,15 8,25 20,27 12,2 36,0 49,0z"/>
      <path class="fil1" d="M562 89c-30,7 -41,33 -41,61 0,34 0,68 0,101 0,17 2,29 11,40 19,27 43,24 80,22 9,0 13,-5 10,-15 -4,-16 -46,1 -65,-11 -11,-7 -16,-17 -16,-36 0,-33 0,-67 0,-101 0,-67 74,-26 81,-45 3,-9 0,-16 -9,-17 -10,0 -43,-1 -51,1z"/>
      <path class="fil1" d="M611 76l15 0c-2,-6 -7,-5 -7,-16 0,-13 8,-26 7,-38 0,-7 -3,-14 -10,-13 -1,6 5,6 1,18 -5,17 -17,31 -6,49z"/>
      <path class="fil1" d="M657 76c-2,-4 -5,-5 -5,-10 -1,-4 2,-9 3,-13 3,-8 5,-21 -7,-20 0,6 3,6 1,13 -2,5 -4,8 -6,13 -8,20 8,17 14,17z"/>
     </g>
    </g>
    <g>
     <path class="fil0 str0" d="M63 503c5,0 7,2 7,6 0,5 -2,7 -7,7l-27 0c-6,0 -10,2 -14,6 -4,4 -6,9 -6,14l0 68c0,5 2,10 6,14 4,4 9,6 14,6l27 0c5,0 7,2 7,7 0,4 -2,6 -7,6l-27 0c-9,0 -17,-3 -24,-9 -6,-7 -10,-15 -10,-24l0 -68c0,-9 4,-17 10,-24 7,-6 15,-9 24,-9l27 0z"/>
     <path class="fil0 str0" d="M97 631l0 -122c0,-4 2,-6 7,-6 4,0 6,2 6,6l0 48 54 0 0 -48c0,-4 3,-6 7,-6 5,0 7,2 7,6l0 122c0,4 -2,6 -7,6 -4,0 -7,-2 -7,-6l0 -61 -54 0 0 61c0,4 -2,6 -6,6 -5,0 -7,-2 -7,-6z"/>
     <path class="fil0 str0" d="M252 530l-20 60 40 0 -20 -60zm47 101c0,4 -2,6 -7,6 -3,0 -5,-1 -6,-4l-10 -29 -49 0 -9 29c-1,3 -3,4 -7,4 -4,0 -6,-2 -6,-6 0,-1 0,-2 0,-2l40 -121c1,-4 4,-5 7,-5 3,0 5,1 6,5l41 121c0,0 0,1 0,2z"/>
     <path class="fil0 str0" d="M333 637c-5,0 -7,-2 -7,-6l0 -122c0,-4 2,-6 7,-6 4,0 6,2 6,6l0 122c0,4 -2,6 -6,6z"/>
     <path class="fil0 str0" d="M481 624l34 0 0 -54 -14 0c-4,0 -6,-2 -6,-7 0,-4 2,-6 6,-6l20 0c5,0 7,2 7,6l0 68c0,4 -2,6 -7,6l-40 0c-9,0 -17,-3 -24,-9 -6,-7 -10,-15 -10,-24l0 -68c0,-9 4,-17 10,-24 7,-6 15,-9 24,-9l40 0c5,0 7,2 7,6 0,5 -2,7 -7,7l-40 0c-6,0 -11,2 -14,6 -4,4 -6,9 -6,14l0 68c0,5 2,10 6,14 3,4 8,6 14,6z"/>
     <path class="fil0 str0" d="M623 597l0 -54c0,-8 -3,-14 -8,-19 -5,-5 -12,-8 -19,-8 -8,0 -14,3 -20,8 -5,5 -7,11 -7,19l0 54c0,8 2,14 7,19 6,5 12,8 20,8 7,0 14,-3 19,-8 5,-5 8,-11 8,-19zm13 0c0,11 -4,21 -12,29 -8,8 -17,11 -28,11 -12,0 -21,-3 -29,-11 -8,-8 -12,-18 -12,-29l0 -54c0,-11 4,-21 12,-29 8,-7 17,-11 29,-11 11,0 20,4 28,11 8,8 12,18 12,29l0 54z"/>
     <path class="fil0 str0" d="M710 637c-3,0 -5,-1 -6,-5l-41 -120c0,-1 0,-2 0,-3 0,-4 2,-6 7,-6 3,0 5,1 6,4l34 103 34 -103c1,-3 3,-4 7,-4 4,0 6,2 6,6 0,1 0,2 0,3l-40 120c-1,4 -4,5 -7,5z"/>
     <path class="fil0 str0" d="M791 637c-4,0 -7,-2 -7,-6l0 -122c0,-4 3,-6 7,-6 4,0 7,2 7,6l0 122c0,4 -3,6 -7,6z"/>
     <path class="fil0 str0" d="M892 605l0 -96c0,-4 2,-6 7,-6 4,0 7,2 7,6l0 122c0,4 -3,6 -7,6 -3,0 -5,-1 -6,-3l-55 -99 0 96c0,4 -2,6 -7,6 -4,0 -6,-2 -6,-6l0 -122c0,-4 2,-6 6,-6 3,0 5,1 7,4l54 98z"/>
     <path class="fil0 str0" d="M933 509c0,-4 2,-6 6,-6l41 0c9,0 17,3 24,9 6,7 9,15 9,24l0 68c0,9 -3,17 -9,24 -7,6 -15,9 -24,9l-41 0c-4,0 -6,-2 -6,-6l0 -122zm13 7l0 108 34 0c5,0 10,-2 14,-6 4,-4 6,-9 6,-14l0 -68c0,-5 -2,-10 -6,-14 -4,-4 -9,-6 -14,-6l-34 0z"/>
     <path class="fil0 str0" d="M1088 530l-20 60 40 0 -20 -60zm47 101c0,4 -2,6 -7,6 -3,0 -5,-1 -6,-4l-10 -29 -49 0 -10 29c-1,3 -3,4 -6,4 -4,0 -7,-2 -7,-6 0,-1 1,-2 1,-2l40 -121c1,-4 3,-5 7,-5 3,0 5,1 6,5l40 121c1,0 1,1 1,2z"/>
     <path class="fil0 str0" d="M1249 503c5,0 7,2 7,6l0 122c0,4 -2,6 -7,6 -4,0 -6,-2 -6,-6l0 -100 -28 42c-2,2 -4,4 -6,4 -2,0 -4,-2 -6,-4l-28 -42 0 100c0,4 -2,6 -7,6 -4,0 -6,-2 -6,-6l0 -122c0,-4 2,-6 6,-6 3,0 5,1 6,3l35 52 35 -52c1,-2 3,-3 5,-3z"/>
    </g>
    <path class="fil2" d="M1299 449c10,0 19,4 25,11l0 0c6,6 10,15 10,25 0,10 -4,18 -10,25l0 0c-6,6 -15,10 -25,10 -10,0 -19,-4 -25,-10l0 0c-6,-7 -10,-15 -10,-25 0,-10 4,-19 10,-25l0 0c6,-7 15,-11 25,-11zm22 14c-6,-5 -14,-9 -22,-9 -8,0 -16,4 -21,9l-1 0c-5,6 -8,13 -8,22 0,8 3,16 8,21l1 0c5,6 13,9 21,9 8,0 16,-3 22,-9l0 0c5,-5 8,-13 8,-21 0,-9 -3,-16 -8,-22l0 0z"/>
    <path class="fil2" d="M1286 503l0 -36 15 0c4,0 7,0 8,1 2,1 3,2 4,3 1,2 2,4 2,6 0,3 -1,5 -2,7 -2,1 -4,2 -7,3 1,1 2,2 3,3 2,1 3,3 5,6l4 7 -9 0 -5 -8c-2,-3 -3,-5 -4,-5 0,-1 -1,-2 -2,-2 -1,0 -2,0 -3,0l-2 0 0 15 -7 0zm7 -21l5 0c4,0 6,0 7,0 1,-1 1,-1 2,-2 0,-1 1,-2 1,-3 0,-1 -1,-2 -1,-2 -1,-1 -2,-2 -3,-2 -1,0 -2,0 -5,0l-6 0 0 9z"/>
   </g>
   <path class="fil0" d="M273 833l0 -23c-5,3 -9,4 -12,4 -3,0 -8,-3 -15,-7 -3,3 -7,6 -12,7 1,3 4,6 9,10 5,5 10,8 14,11l-3 5c-11,-7 -18,-12 -22,-16 -9,-7 -15,-15 -19,-24 2,-5 4,-8 6,-10 0,-1 2,-1 3,0 2,1 4,2 5,3 1,1 1,1 1,2 1,1 1,2 1,4 0,1 1,3 1,4 3,-1 5,-3 7,-5 2,-2 3,-5 3,-8 0,-2 0,-5 0,-8 -1,-3 -1,-6 -2,-8l-28 0 0 -11 83 0 0 11 -6 0 0 66 -14 -7zm-28 -59c4,5 6,10 6,15 1,5 0,9 -2,14 2,1 5,1 7,1 3,0 6,0 9,-2 3,-1 6,-4 8,-7l0 -21 -28 0zm48 0l0 -11 70 0 0 11 -9 0 0 66 -14 -7 0 -14c-5,4 -9,6 -13,6 -1,0 -3,0 -4,0 -1,-1 -3,-2 -4,-3 -2,-1 -3,-1 -4,-2 -1,-1 -2,-2 -4,-4 -2,-2 -3,-3 -4,-4 0,0 -2,-2 -3,-4 -2,-1 -3,-3 -4,-3 0,0 0,-11 0,-31l-7 0zm21 36c3,3 8,3 13,1 6,-2 10,-6 13,-11l0 -26 -26 0 0 36zm101 23l0 -35 -18 0c4,5 5,10 3,14 -1,4 -4,6 -7,8 -4,2 -7,2 -9,1 -9,-8 -14,-12 -14,-13 -3,-3 -5,-7 -4,-12 1,-5 3,-8 7,-9 0,0 14,0 42,0l0 -13 -52 0 0 -11 75 0 0 11 -9 0 0 66 -14 -7zm-26 -35c-8,0 -12,1 -13,5 0,2 1,4 3,6 3,2 5,3 8,1 3,-1 4,-6 4,-12l-2 0zm70 -44c-4,-2 -7,-5 -9,-9 0,-1 1,-3 3,-5 3,-2 4,-3 6,-3 4,2 7,5 9,8 -2,4 -5,7 -9,9zm-44 -3l-9 -9c4,-2 9,-2 14,-3 5,-1 8,-1 10,0 2,0 4,1 5,2 2,1 4,3 6,5 2,2 3,4 4,5 2,1 3,4 5,7 3,2 4,4 4,5l13 0 0 11 -8 0 0 66 -15 -7 0 -59 -6 0 0 -11 12 0c-5,-7 -10,-11 -14,-14 -5,-2 -12,-2 -21,2zm88 23l0 -11 102 0 0 11 -42 0 0 12c5,-3 10,-5 17,-5 2,0 5,2 10,7 5,5 8,9 11,13 2,4 1,9 -3,14 -4,5 -9,9 -16,11l-11 -10c9,-2 14,-6 16,-9 2,-3 3,-5 3,-7 0,-3 0,-4 -2,-5 -1,-1 -2,-2 -5,-2 -2,-1 -4,0 -7,1 -6,3 -11,8 -13,14l0 32 -14 -7 0 -16c-4,6 -9,8 -14,8 -9,0 -17,-7 -25,-22 -1,-3 0,-6 3,-11 4,-4 8,-7 13,-10 5,-2 9,-3 11,-1 4,3 8,6 12,8l0 -15 -46 0zm19 36c0,1 2,2 3,3 2,0 4,1 7,1 2,0 5,-1 8,-3 3,-2 6,-5 9,-9l0 -7c-6,-3 -11,-3 -15,-2 -5,2 -9,5 -11,9 -3,3 -3,6 -1,8zm100 -47l13 0 0 11 -9 0 0 66 -14 -7 0 -59 -7 0 0 -11 12 0c-5,-7 -9,-11 -14,-14 -5,-2 -12,-2 -21,2l-8 -9c4,-2 8,-2 13,-3 5,-1 9,-1 11,0 2,0 3,1 5,2 2,1 3,3 5,5 2,2 4,4 5,5 1,1 3,4 5,7 2,2 4,4 4,5zm124 70l0 -35 -17 0c2,2 4,4 5,6 2,2 3,4 3,5 1,2 0,5 -2,8 -2,3 -5,5 -9,7 -4,2 -8,3 -12,3 -4,1 -7,0 -10,-2 -5,-3 -13,-14 -26,-33l3 -2c6,7 10,12 12,14 8,8 16,12 22,10 1,-1 2,-1 3,-1 1,-1 2,-2 3,-3 1,0 2,-1 2,-3 1,-1 1,-2 1,-4 0,-1 -1,-3 -2,-5l-8 0 -13 -10 45 0 0 -14 -73 0 0 -11 97 0 0 11 -10 0 0 66 -14 -7zm24 -59l0 -11 74 0 0 11 -10 0 0 66 -14 -7 0 -59 -28 0c5,5 9,11 11,17 1,6 2,11 1,16 -1,4 -4,8 -7,11 -3,3 -7,5 -12,5 -1,0 -3,-1 -6,-4 -3,-3 -5,-5 -5,-7 -1,-2 -1,-4 0,-8 1,-4 2,-6 4,-7 1,0 2,0 4,2 1,1 3,2 3,2 1,0 1,1 1,1 0,0 0,1 0,1 1,0 1,1 1,1 0,0 0,1 0,1 0,1 0,2 0,2 4,-5 5,-11 5,-17 0,-6 -2,-12 -6,-16l-16 0zm74 0l0 -11 30 0 0 11 -9 0 0 66 -14 -7 0 -59 -7 0zm30 0l0 -11 64 0 0 11 -8 0 0 31c0,2 -1,4 -3,6 -3,3 -5,5 -8,7l-11 -9c2,0 4,-2 5,-3 2,-2 3,-3 3,-5l0 -27 -21 0c0,1 0,4 -1,8 0,3 0,6 0,9 0,2 0,4 0,7 0,3 1,5 1,7 0,2 1,3 1,4 2,3 7,8 17,15 3,2 5,4 6,7 1,3 1,6 1,8 -1,3 -2,5 -4,7l-11 -9c2,0 3,-1 3,-3 1,-2 1,-4 0,-6 -1,-3 -2,-5 -5,-7 -2,-2 -5,-4 -9,-7 -3,-3 -6,-5 -9,-7 -2,-2 -3,-3 -4,-4 0,0 0,-10 0,-29l-7 0zm100 0l0 -11 52 0 0 11 -15 0c4,5 6,10 6,16 1,6 -1,11 -4,15 -3,5 -8,9 -14,11 6,8 13,15 24,20l-4 4c-3,-2 -6,-4 -9,-6 -2,-1 -5,-4 -9,-6 -3,-3 -6,-5 -9,-8 -2,-3 -5,-6 -7,-9 -3,-4 -5,-7 -6,-11 2,-5 3,-8 5,-10 1,-1 2,-1 4,0 2,1 3,2 5,3 0,1 1,2 1,4 1,3 1,4 2,5 3,-1 5,-2 7,-4 1,-3 2,-5 3,-8 0,-3 0,-5 0,-8 -1,-3 -2,-6 -3,-8l-29 0zm52 -11l98 0 0 11 -9 0 0 66 -14 -7 0 -12c-3,6 -8,10 -13,14 -5,3 -11,5 -17,5 -6,0 -11,-1 -16,-3 -4,-2 -8,-4 -11,-7 -3,-3 -6,-6 -8,-10 -3,-3 -4,-7 -5,-10 -1,-4 -2,-7 -2,-10 1,-5 3,-8 5,-10 1,-1 2,-1 4,0 2,1 3,2 5,3 0,1 0,2 1,2 0,1 0,2 0,4 1,1 1,2 1,3 3,-1 6,-2 7,-5 2,-2 3,-4 3,-7 1,-3 1,-5 0,-8 0,-3 -1,-6 -2,-8l-27 0 0 -11zm62 62c-8,0 -17,-7 -24,-21 -3,6 -9,10 -17,13 1,3 4,7 7,10 4,3 9,4 16,4 7,0 13,-2 18,-6zm-13 -15c1,1 2,2 4,3 1,0 3,1 6,1 2,0 5,-1 8,-2 3,-2 5,-4 8,-7l0 -11c-5,-2 -10,-2 -15,0 -4,1 -8,4 -10,8 -2,4 -3,6 -1,8zm16 -29c2,1 5,4 10,7l0 -14 -40 0c4,6 6,13 6,19 3,-4 7,-8 12,-10 6,-3 9,-4 12,-2zm18 -18l-5 0c-1,-2 -4,-5 -6,-8 -3,-2 -6,-4 -8,-6 -5,-2 -12,-2 -21,2l-8 -9c4,-2 8,-2 13,-3 5,-1 9,-1 11,0 2,0 3,1 5,2 2,1 3,3 5,5 2,2 4,4 5,5 1,2 3,4 5,7 2,3 4,4 4,5z"/>
  </g>
 </g>
</svg>
